<?xml version="1.0" standalone="no"?>
<!DOCTYPE svg PUBLIC "-//W3C//DTD SVG 20010904//EN"
 "http://www.w3.org/TR/2001/REC-SVG-20010904/DTD/svg10.dtd">
<svg version="1.0" xmlns="http://www.w3.org/2000/svg"
 width="2240.000000pt" height="1696.000000pt" viewBox="0 0 2240.000000 1696.000000"
 preserveAspectRatio="xMidYMid meet">

<g transform="translate(0.000000,1696.000000) scale(0.100000,-0.100000)"
fill="#000000" stroke="none">
<path d="M0 8480 l0 -8480 11200 0 11200 0 0 8480 0 8480 -11200 0 -11200 0 0
-8480z m11205 4145 c414 -26 891 -227 1200 -506 139 -125 269 -282 351 -424
10 -18 12 -18 62 3 253 109 619 94 877 -36 342 -172 527 -482 526 -882 -1 -85
-7 -155 -20 -220 -11 -52 -18 -96 -16 -98 3 -3 29 -15 59 -27 243 -99 482
-361 570 -625 58 -177 74 -384 42 -551 -61 -319 -299 -586 -626 -703 -119 -43
-204 -58 -367 -63 l-153 -6 0 135 0 135 158 5 c145 5 165 8 259 40 134 45 200
86 298 183 131 129 195 282 195 465 0 310 -229 634 -516 730 -34 12 -122 28
-196 38 l-135 17 68 120 c99 171 114 225 114 405 0 167 -13 227 -75 358 -106
223 -372 372 -662 372 -159 0 -271 -39 -440 -153 -65 -44 -120 -78 -123 -76
-2 2 -17 40 -35 84 -84 212 -172 348 -319 495 -211 210 -522 384 -825 460
-241 61 -504 74 -722 36 -239 -42 -558 -188 -789 -359 -130 -97 -338 -315
-423 -442 -160 -240 -241 -469 -261 -740 -10 -134 -5 -231 25 -429 8 -54 13
-100 11 -102 -2 -2 -48 14 -103 37 -288 117 -526 136 -756 59 -116 -39 -170
-67 -264 -139 -143 -107 -244 -261 -290 -437 -22 -86 -25 -113 -21 -209 6
-125 26 -199 83 -295 120 -205 396 -374 729 -446 205 -44 246 -46 933 -51
l662 -5 0 -134 0 -134 -547 0 c-601 0 -830 9 -1000 39 -402 70 -737 241 -937
479 -69 81 -147 231 -178 338 -30 105 -32 326 -5 453 117 542 646 905 1238
851 68 -6 126 -13 130 -15 3 -2 11 63 17 145 26 336 119 605 303 880 264 393
683 707 1149 860 80 27 185 56 235 65 99 18 295 34 365 29 25 -2 90 -6 145 -9z
m1681 -2452 c623 -229 1131 -419 1129 -423 -2 -4 -97 -49 -210 -100 l-205 -94
0 -608 0 -608 -55 0 -55 0 0 580 c0 319 -2 580 -4 580 -3 0 -16 -4 -30 -10
l-26 -10 0 -660 0 -660 -60 0 -60 0 0 630 c0 347 -2 630 -5 630 -4 0 -19 -7
-35 -15 l-30 -16 0 -579 0 -580 -55 0 -55 0 -2 554 -3 555 -690 -315 c-431
-198 -697 -314 -710 -311 -23 5 -2256 1025 -2267 1035 -8 8 2245 840 2276 841
10 1 529 -187 1152 -416z m-1866 -1300 c228 -105 438 -201 465 -213 28 -12 93
-42 146 -66 53 -24 101 -44 106 -44 6 0 152 65 324 144 173 79 334 153 359
164 25 11 163 74 307 140 144 66 265 117 268 114 3 -3 5 -131 5 -286 l0 -280
-53 -52 c-123 -118 -505 -265 -852 -328 -268 -47 -416 -47 -720 4 -289 49
-632 173 -807 291 -93 63 -88 44 -88 371 l0 287 63 -28 c34 -15 249 -114 477
-218z m1429 -2343 c22 -11 48 -34 59 -52 29 -49 392 -951 392 -975 0 -28 -17
-33 -104 -33 -57 0 -76 4 -88 18 -8 9 -86 196 -174 415 -114 288 -161 394
-166 380 -4 -10 -41 -102 -82 -205 l-74 -188 72 0 c93 0 113 -12 142 -84 27
-66 30 -101 12 -113 -7 -4 -80 -10 -162 -13 l-148 -5 -37 -93 c-21 -52 -44
-98 -52 -103 -16 -10 -149 -12 -173 -3 -9 3 -16 15 -16 26 0 23 362 930 390
975 40 66 136 91 209 53z m-8945 -19 c17 -16 65 -125 151 -343 70 -175 132
-317 137 -316 6 2 68 146 137 321 73 183 136 326 149 339 20 20 34 23 120 26
112 3 138 -6 164 -58 16 -32 18 -78 18 -512 0 -462 -1 -478 -19 -488 -24 -13
-131 -13 -151 0 -13 8 -16 68 -20 407 l-5 398 -125 -310 c-148 -367 -154 -377
-252 -383 -79 -5 -128 15 -156 62 -11 17 -73 166 -138 330 l-119 299 -5 -390
c-4 -310 -8 -393 -19 -406 -10 -13 -30 -17 -75 -17 -105 0 -97 -46 -94 517 3
475 4 492 23 513 31 35 53 40 157 37 86 -2 99 -5 122 -26z m1360 7 c14 -20 16
-85 16 -513 0 -575 7 -535 -100 -535 -49 0 -73 4 -84 16 -14 14 -16 75 -16
519 0 444 2 505 16 519 11 12 35 16 84 16 60 0 71 -3 84 -22z m614 -13 c15
-16 122 -199 237 -405 l210 -374 5 390 c4 311 8 394 19 407 10 13 30 17 82 17
107 0 101 35 97 -512 -3 -420 -5 -466 -21 -495 -24 -44 -64 -63 -135 -63 -86
0 -120 9 -150 40 -15 16 -121 197 -237 403 l-210 375 -5 -399 c-4 -341 -7
-401 -20 -409 -24 -15 -133 -12 -156 4 -18 14 -19 31 -19 488 0 459 1 474 21
508 30 52 55 61 162 58 90 -3 95 -4 120 -33z m1647 10 c68 -25 136 -96 163
-168 55 -147 56 -537 1 -683 -28 -73 -96 -144 -164 -169 -43 -16 -88 -19 -325
-22 -249 -4 -278 -2 -310 14 -70 36 -70 37 -70 518 0 481 0 482 70 518 32 16
61 18 310 14 237 -3 282 -6 325 -22z m2043 13 c16 -16 16 -160 0 -176 -9 -9
-87 -12 -290 -12 -322 0 -298 9 -298 -115 0 -123 -17 -115 249 -115 218 0 230
-1 272 -23 35 -18 50 -35 74 -82 28 -56 30 -69 33 -192 6 -208 -32 -296 -141
-328 -72 -21 -633 -22 -663 -1 -16 12 -19 27 -19 91 0 56 4 78 15 85 9 6 138
10 301 10 242 0 288 2 299 15 16 19 24 129 13 180 l-9 40 -239 5 c-253 6 -264
8 -317 58 -47 43 -63 110 -63 262 0 128 1 138 28 192 30 61 69 96 121 108 55
14 620 12 634 -2z m1156 -10 c21 -30 21 -126 0 -156 -15 -22 -18 -22 -274 -22
-147 0 -270 -4 -285 -10 -49 -19 -55 -55 -55 -323 0 -153 4 -256 11 -276 20
-58 39 -61 334 -61 l265 0 10 -26 c16 -40 12 -127 -6 -153 l-16 -23 -287 4
c-321 5 -346 9 -413 75 -44 43 -73 107 -87 194 -14 83 -14 445 0 529 25 158
100 240 239 263 14 2 143 5 287 6 260 1 262 1 277 -21z m1066 -8 c82 -46 123
-143 123 -290 -1 -104 -30 -204 -70 -242 -32 -29 -85 -58 -108 -58 -8 0 -15
-2 -15 -5 0 -3 49 -90 109 -193 61 -103 113 -194 116 -203 3 -9 -1 -24 -10
-33 -24 -24 -168 -23 -192 2 -10 9 -69 108 -132 220 l-113 202 -134 0 -134 0
0 -210 c0 -243 5 -233 -107 -228 -96 4 -94 -6 -91 331 3 263 4 279 22 293 16
11 77 14 321 14 340 0 328 -3 341 77 8 55 -2 109 -27 134 -18 18 -35 19 -323
19 -352 0 -331 -6 -331 100 0 109 -26 102 369 98 l341 -3 45 -25z m2551 13 c9
-10 14 -41 14 -83 0 -102 3 -100 -196 -100 l-169 0 0 -417 c0 -485 7 -453 -98
-453 -110 0 -102 -34 -102 452 l0 418 -169 0 c-199 0 -196 -2 -196 100 0 42 5
73 14 83 12 15 56 17 451 17 395 0 439 -2 451 -17z m1123 1 c12 -11 16 -35 16
-84 0 -105 14 -100 -290 -100 -171 0 -267 -4 -284 -11 -46 -21 -51 -54 -51
-329 0 -230 2 -259 18 -283 10 -16 29 -32 43 -37 14 -6 142 -10 284 -10 299 0
280 7 280 -104 0 -103 16 -98 -319 -94 -276 3 -288 4 -339 27 -71 32 -117 88
-145 176 -20 65 -22 90 -22 330 0 241 2 265 22 330 35 112 101 174 206 195 23
4 160 8 304 9 225 1 264 -1 277 -15z m503 -14 c9 -17 13 -82 13 -212 l0 -188
235 0 235 0 0 193 c0 238 0 237 100 237 49 0 73 -4 84 -16 14 -14 16 -75 16
-519 0 -444 -2 -505 -16 -519 -11 -12 -35 -16 -84 -16 -101 0 -100 -2 -100
242 l0 198 -235 0 -235 0 0 -192 c0 -242 0 -242 -93 -246 -118 -5 -107 -59
-107 533 0 590 -11 536 105 532 63 -2 71 -4 82 -27z m1170 0 c18 -36 18 -974
0 -1010 -11 -22 -20 -25 -80 -28 -118 -5 -107 -59 -107 533 0 590 -11 536 105
532 63 -2 71 -4 82 -27z m593 8 c25 -18 82 -111 249 -408 l216 -385 5 398 c4
339 7 399 20 407 22 14 144 12 158 -2 9 -9 12 -132 12 -490 0 -525 0 -522 -60
-553 -37 -19 -159 -20 -203 -1 -41 17 -46 24 -288 456 l-194 345 -3 -389 c-3
-455 4 -426 -103 -426 -106 0 -99 -31 -99 476 0 439 6 521 38 557 26 29 50 36
138 36 68 1 86 -3 114 -21z m1858 10 c7 -7 12 -42 12 -88 0 -46 -5 -81 -12
-88 -9 -9 -93 -12 -319 -12 -293 0 -307 -1 -332 -20 -15 -12 -31 -38 -37 -58
-13 -48 -13 -466 0 -513 20 -72 25 -74 276 -77 l224 -3 10 26 c6 15 10 71 10
126 l0 99 -170 0 c-197 0 -190 -4 -190 104 0 100 -10 96 270 96 207 0 241 -2
255 -16 14 -15 16 -46 13 -263 -3 -223 -5 -250 -23 -285 -11 -22 -33 -49 -48
-60 -27 -20 -41 -21 -310 -21 -320 0 -351 5 -421 66 -82 73 -106 177 -106 464
0 282 24 390 102 460 75 68 105 73 479 74 225 1 308 -2 317 -11z m-4304 -2006
c72 -98 136 -183 140 -189 5 -10 -5 -13 -41 -13 -47 0 -50 2 -86 50 l-37 50
-120 0 -120 0 -37 -50 c-36 -48 -39 -50 -86 -50 l-49 0 29 38 c15 21 80 108
143 194 63 86 119 154 123 151 4 -3 68 -84 141 -181z m-6220 145 c15 -10 35
-35 43 -55 13 -32 14 -42 2 -77 -23 -66 -52 -75 -256 -75 l-173 0 0 -70 0 -70
-40 0 -41 0 1 179 c1 99 5 182 8 186 4 4 102 5 217 3 184 -3 215 -5 239 -21z
m2604 5 c78 -44 71 -173 -10 -201 -17 -6 -105 -11 -199 -11 l-169 0 0 -70 0
-70 -40 0 -40 0 0 178 c0 98 3 182 7 186 14 13 425 2 451 -12z m5207 -27 l0
-40 -212 -3 c-185 -2 -212 -4 -217 -19 -13 -32 13 -38 189 -43 l175 -5 30 -31
c38 -38 44 -101 13 -143 -34 -45 -76 -52 -292 -49 l-196 3 0 40 0 40 213 3
213 2 -3 28 -3 27 -175 5 c-193 6 -208 10 -236 68 -29 62 3 131 72 152 16 5
119 8 229 7 l200 -2 0 -40z m-10073 2 c73 -36 103 -81 103 -154 0 -42 -5 -58
-31 -89 -17 -21 -53 -50 -80 -64 -46 -23 -61 -25 -221 -28 l-173 -4 0 187 0
187 173 -4 c165 -3 174 -4 229 -31z m843 -7 l0 -35 -217 -3 -218 -2 0 -30 0
-30 145 0 145 0 0 -43 0 -43 -145 4 -145 5 0 -37 0 -36 221 0 220 0 -3 -37 -3
-38 -255 0 -255 0 -3 183 -2 182 257 -2 258 -3 0 -35z m735 0 l0 -40 -215 0
-215 0 0 -30 0 -29 143 -3 142 -3 0 -40 0 -40 -142 4 -143 3 0 -36 0 -36 215
0 215 0 0 -40 0 -40 -255 0 -255 0 0 185 0 185 255 0 255 0 0 -40z m1470 0 l0
-40 -215 0 -215 0 0 -30 0 -29 143 -3 142 -3 0 -40 0 -40 -142 4 -143 3 0 -36
0 -36 215 0 215 0 0 -40 0 -40 -255 0 -255 0 0 185 0 185 255 0 255 0 0 -40z
m696 6 c28 -28 34 -41 34 -77 -1 -77 -43 -109 -144 -109 -36 0 -66 -4 -66 -8
0 -5 9 -17 21 -28 16 -14 40 -20 100 -23 l79 -3 0 -39 0 -39 -72 0 c-50 0 -86
6 -114 19 -43 20 -94 76 -94 104 0 14 -11 17 -65 17 l-65 0 0 -70 0 -70 -40 0
-40 0 0 180 0 180 216 0 216 0 34 -34z m1854 19 c32 -17 60 -61 60 -95 0 -34
-28 -78 -60 -95 -17 -9 -55 -15 -94 -15 -55 0 -64 -3 -59 -15 10 -28 60 -45
133 -45 l70 0 0 -40 0 -40 -77 0 c-115 1 -191 43 -209 117 -6 21 -11 23 -70
23 l-64 0 0 -70 0 -70 -40 0 -40 0 0 180 0 180 210 0 c169 0 217 -3 240 -15z
m757 -18 c26 -26 28 -33 31 -131 4 -119 -8 -155 -61 -183 -26 -14 -61 -17
-197 -18 -144 0 -169 2 -194 18 -45 30 -59 78 -54 184 3 81 7 96 28 118 36 38
70 44 252 42 l168 -2 27 -28z m763 -7 l0 -40 -143 0 c-210 0 -281 -27 -281
-105 0 -73 74 -105 241 -105 l103 0 0 30 0 30 -70 0 -70 0 0 45 0 45 110 0
110 0 0 -116 0 -117 -172 5 c-163 4 -176 6 -225 31 -114 59 -142 167 -67 257
54 64 108 78 312 79 l152 1 0 -40z m696 6 c26 -26 34 -42 34 -70 0 -83 -41
-116 -145 -116 -36 0 -65 -4 -65 -8 0 -5 9 -17 21 -28 16 -14 40 -20 100 -23
l79 -3 0 -39 0 -39 -72 0 c-107 1 -180 40 -207 113 -10 25 -14 27 -71 27 l-60
0 0 -32 c0 -18 -3 -50 -6 -70 -6 -35 -9 -38 -40 -38 l-34 0 0 180 0 180 216 0
216 0 34 -34z m1524 -151 l0 -185 -40 0 -40 0 0 110 0 111 -89 -60 -89 -60
-86 60 -86 60 0 -110 0 -111 -40 0 -40 0 0 181 c0 147 3 180 13 176 8 -3 64
-40 126 -82 l112 -77 127 85 c70 47 128 86 130 86 1 1 2 -82 2 -184z"/>
<path d="M11555 9899 c-10 -15 38 -82 81 -115 54 -42 134 -45 190 -8 41 27 94
96 94 122 0 10 -6 12 -22 7 -90 -28 -154 -36 -221 -25 -38 6 -78 15 -88 20
-22 13 -26 12 -34 -1z"/>
<path d="M6620 6005 l0 -335 200 0 c315 0 305 -11 305 335 0 346 10 335 -305
335 l-200 0 0 -335z"/>
<path d="M14710 4540 l-21 -30 51 0 51 0 -23 30 c-12 17 -25 30 -29 30 -4 0
-17 -13 -29 -30z"/>
<path d="M8290 4570 l0 -30 164 0 c171 0 195 6 180 44 -5 14 -28 16 -175 16
l-169 0 0 -30z"/>
<path d="M10890 4570 l0 -30 169 0 c176 0 200 6 185 44 -5 14 -29 16 -180 16
l-174 0 0 -30z"/>
<path d="M6080 4495 l0 -105 108 0 c120 0 170 11 207 43 39 34 42 77 10 115
-35 41 -77 52 -212 52 l-113 0 0 -105z"/>
<path d="M9760 4570 l0 -30 168 2 167 3 0 25 0 25 -167 3 -168 2 0 -30z"/>
<path d="M11630 4570 l0 -30 173 2 172 3 0 25 0 25 -172 3 -173 2 0 -30z"/>
<path d="M12383 4590 c-21 -9 -23 -16 -23 -87 0 -43 5 -85 10 -93 8 -12 36
-15 166 -13 115 2 160 6 166 15 4 7 8 50 8 94 0 66 -3 83 -16 88 -24 9 -286 6
-311 -4z"/>
<path d="M13830 4570 l0 -30 168 2 167 3 0 25 0 25 -167 3 -168 2 0 -30z"/>
</g>
</svg>
